<mxfile host="app.diagrams.net" modified="2021-11-27T13:42:11.597Z" agent="5.0 (Windows NT 10.0; Win64; x64) AppleWebKit/537.36 (KHTML, like Gecko) Chrome/96.0.4664.45 Safari/537.36" etag="CXKICk4vrc00MYHXMd-T" version="15.8.6" type="github">
  <diagram id="0uX6TOpIcJ3kqXLuszo9" name="Page-1">
    <mxGraphModel dx="1849" dy="1647" grid="1" gridSize="10" guides="1" tooltips="1" connect="1" arrows="1" fold="1" page="1" pageScale="1" pageWidth="827" pageHeight="1169" math="0" shadow="0">
      <root>
        <mxCell id="0" />
        <mxCell id="1" parent="0" />
        <mxCell id="vQk_TCHcEZasVmNUSxg1-12" value="User&lt;br&gt;" style="shape=umlActor;verticalLabelPosition=bottom;verticalAlign=top;html=1;outlineConnect=0;" parent="1" vertex="1">
          <mxGeometry x="-260" y="360" width="70" height="100" as="geometry" />
        </mxCell>
        <mxCell id="vQk_TCHcEZasVmNUSxg1-20" value="Admin" style="shape=umlActor;verticalLabelPosition=bottom;verticalAlign=top;html=1;outlineConnect=0;" parent="1" vertex="1">
          <mxGeometry x="840" y="-70" width="30" height="60" as="geometry" />
        </mxCell>
        <mxCell id="vQk_TCHcEZasVmNUSxg1-27" value="" style="endArrow=none;html=1;rounded=0;exitX=0.5;exitY=0.5;exitDx=0;exitDy=0;exitPerimeter=0;" parent="1" source="vQk_TCHcEZasVmNUSxg1-12" target="qNz97zHOUoqoEZT0imf--8" edge="1">
          <mxGeometry width="50" height="50" relative="1" as="geometry">
            <mxPoint x="360" y="520" as="sourcePoint" />
            <mxPoint x="180" y="329" as="targetPoint" />
          </mxGeometry>
        </mxCell>
        <mxCell id="vQk_TCHcEZasVmNUSxg1-28" value="" style="endArrow=none;html=1;rounded=0;exitX=0;exitY=0.5;exitDx=0;exitDy=0;entryX=0.5;entryY=0.5;entryDx=0;entryDy=0;entryPerimeter=0;" parent="1" source="qNz97zHOUoqoEZT0imf--36" target="vQk_TCHcEZasVmNUSxg1-12" edge="1">
          <mxGeometry width="50" height="50" relative="1" as="geometry">
            <mxPoint x="537.99" y="460.02" as="sourcePoint" />
            <mxPoint x="410" y="470" as="targetPoint" />
          </mxGeometry>
        </mxCell>
        <mxCell id="vQk_TCHcEZasVmNUSxg1-29" value="" style="endArrow=none;html=1;rounded=0;entryX=0.5;entryY=0.5;entryDx=0;entryDy=0;entryPerimeter=0;exitX=0;exitY=0.5;exitDx=0;exitDy=0;" parent="1" source="qNz97zHOUoqoEZT0imf--25" target="vQk_TCHcEZasVmNUSxg1-12" edge="1">
          <mxGeometry width="50" height="50" relative="1" as="geometry">
            <mxPoint x="610" y="390" as="sourcePoint" />
            <mxPoint x="507" y="344" as="targetPoint" />
          </mxGeometry>
        </mxCell>
        <mxCell id="vQk_TCHcEZasVmNUSxg1-30" value="" style="endArrow=none;html=1;rounded=0;entryX=0;entryY=0.5;entryDx=0;entryDy=0;exitX=0.5;exitY=0.5;exitDx=0;exitDy=0;exitPerimeter=0;" parent="1" source="vQk_TCHcEZasVmNUSxg1-12" target="qNz97zHOUoqoEZT0imf--6" edge="1">
          <mxGeometry width="50" height="50" relative="1" as="geometry">
            <mxPoint x="45" y="400" as="sourcePoint" />
            <mxPoint x="171.96774035582143" y="531.3459382991257" as="targetPoint" />
            <Array as="points">
              <mxPoint x="-80" y="-70" />
            </Array>
          </mxGeometry>
        </mxCell>
        <mxCell id="vQk_TCHcEZasVmNUSxg1-31" value="" style="endArrow=none;html=1;rounded=0;entryX=0.021;entryY=0.314;entryDx=0;entryDy=0;entryPerimeter=0;exitX=0.5;exitY=0.5;exitDx=0;exitDy=0;exitPerimeter=0;" parent="1" source="vQk_TCHcEZasVmNUSxg1-12" target="qNz97zHOUoqoEZT0imf--4" edge="1">
          <mxGeometry width="50" height="50" relative="1" as="geometry">
            <mxPoint x="360" y="520" as="sourcePoint" />
            <mxPoint x="154.64466094067257" y="455.85786437626894" as="targetPoint" />
          </mxGeometry>
        </mxCell>
        <mxCell id="vQk_TCHcEZasVmNUSxg1-32" value="" style="endArrow=none;html=1;rounded=0;entryX=0;entryY=0.5;entryDx=0;entryDy=0;exitX=0.5;exitY=0.5;exitDx=0;exitDy=0;exitPerimeter=0;" parent="1" source="vQk_TCHcEZasVmNUSxg1-12" target="qNz97zHOUoqoEZT0imf--7" edge="1">
          <mxGeometry width="50" height="50" relative="1" as="geometry">
            <mxPoint x="45" y="400" as="sourcePoint" />
            <mxPoint x="145" y="631" as="targetPoint" />
          </mxGeometry>
        </mxCell>
        <mxCell id="vQk_TCHcEZasVmNUSxg1-33" value="" style="endArrow=none;html=1;rounded=0;entryX=0;entryY=0.5;entryDx=0;entryDy=0;exitX=0.5;exitY=0.5;exitDx=0;exitDy=0;exitPerimeter=0;" parent="1" source="vQk_TCHcEZasVmNUSxg1-12" target="qNz97zHOUoqoEZT0imf--5" edge="1">
          <mxGeometry width="50" height="50" relative="1" as="geometry">
            <mxPoint x="360" y="520" as="sourcePoint" />
            <mxPoint x="149" y="401" as="targetPoint" />
          </mxGeometry>
        </mxCell>
        <mxCell id="qNz97zHOUoqoEZT0imf--4" value="Tìm kiếm&amp;nbsp;&amp;nbsp;" style="ellipse;whiteSpace=wrap;html=1;" parent="1" vertex="1">
          <mxGeometry x="-22.5" y="420" width="105" height="40" as="geometry" />
        </mxCell>
        <mxCell id="qNz97zHOUoqoEZT0imf--5" value="Đăng nhập" style="ellipse;whiteSpace=wrap;html=1;" parent="1" vertex="1">
          <mxGeometry x="65" y="130" width="120" height="60" as="geometry" />
        </mxCell>
        <mxCell id="qNz97zHOUoqoEZT0imf--6" value="Xem chi tiết sản phầm&amp;nbsp;" style="ellipse;whiteSpace=wrap;html=1;" parent="1" vertex="1">
          <mxGeometry x="-81.25" y="-90" width="120" height="65" as="geometry" />
        </mxCell>
        <mxCell id="qNz97zHOUoqoEZT0imf--7" value="Đặt hàng" style="ellipse;whiteSpace=wrap;html=1;" parent="1" vertex="1">
          <mxGeometry x="-40" y="270" width="140" height="70" as="geometry" />
        </mxCell>
        <mxCell id="qNz97zHOUoqoEZT0imf--8" value="Đăng ký&amp;nbsp;" style="ellipse;whiteSpace=wrap;html=1;" parent="1" vertex="1">
          <mxGeometry x="-22.5" y="480" width="100" height="70" as="geometry" />
        </mxCell>
        <mxCell id="qNz97zHOUoqoEZT0imf--10" value="Thanh toán" style="ellipse;whiteSpace=wrap;html=1;" parent="1" vertex="1">
          <mxGeometry x="230" y="270" width="117.5" height="60" as="geometry" />
        </mxCell>
        <mxCell id="qNz97zHOUoqoEZT0imf--11" value="Đăng&amp;nbsp; xuất" style="ellipse;whiteSpace=wrap;html=1;" parent="1" vertex="1">
          <mxGeometry x="-100" y="130" width="120" height="60" as="geometry" />
        </mxCell>
        <mxCell id="qNz97zHOUoqoEZT0imf--13" value="Include" style="endArrow=open;endSize=12;dashed=1;html=1;rounded=0;exitX=0;exitY=0.5;exitDx=0;exitDy=0;" parent="1" source="qNz97zHOUoqoEZT0imf--10" target="qNz97zHOUoqoEZT0imf--7" edge="1">
          <mxGeometry width="160" relative="1" as="geometry">
            <mxPoint x="330" y="490" as="sourcePoint" />
            <mxPoint x="211" y="590" as="targetPoint" />
          </mxGeometry>
        </mxCell>
        <mxCell id="qNz97zHOUoqoEZT0imf--19" value="" style="endArrow=none;html=1;rounded=0;entryX=0;entryY=0.5;entryDx=0;entryDy=0;exitX=0.5;exitY=0.5;exitDx=0;exitDy=0;exitPerimeter=0;" parent="1" source="vQk_TCHcEZasVmNUSxg1-12" target="qNz97zHOUoqoEZT0imf--11" edge="1">
          <mxGeometry width="50" height="50" relative="1" as="geometry">
            <mxPoint x="50" y="400" as="sourcePoint" />
            <mxPoint x="620" y="409.01574803149606" as="targetPoint" />
          </mxGeometry>
        </mxCell>
        <mxCell id="qNz97zHOUoqoEZT0imf--20" value="" style="endArrow=none;html=1;rounded=0;exitX=0.5;exitY=0.5;exitDx=0;exitDy=0;exitPerimeter=0;entryX=0.5;entryY=1;entryDx=0;entryDy=0;" parent="1" source="vQk_TCHcEZasVmNUSxg1-12" target="qNz97zHOUoqoEZT0imf--10" edge="1">
          <mxGeometry width="50" height="50" relative="1" as="geometry">
            <mxPoint x="518" y="561" as="sourcePoint" />
            <mxPoint x="630" y="419.01574803149606" as="targetPoint" />
            <Array as="points">
              <mxPoint x="289" y="410" />
              <mxPoint x="289" y="390" />
            </Array>
          </mxGeometry>
        </mxCell>
        <mxCell id="qNz97zHOUoqoEZT0imf--23" value="Include" style="endArrow=open;endSize=12;dashed=1;html=1;rounded=0;exitX=0.5;exitY=0;exitDx=0;exitDy=0;entryX=0.417;entryY=1;entryDx=0;entryDy=0;entryPerimeter=0;" parent="1" source="qNz97zHOUoqoEZT0imf--7" target="qNz97zHOUoqoEZT0imf--5" edge="1">
          <mxGeometry width="160" relative="1" as="geometry">
            <mxPoint x="190" y="260" as="sourcePoint" />
            <mxPoint x="350" y="260" as="targetPoint" />
          </mxGeometry>
        </mxCell>
        <mxCell id="qNz97zHOUoqoEZT0imf--25" value="Bình luận" style="ellipse;whiteSpace=wrap;html=1;" parent="1" vertex="1">
          <mxGeometry x="-80" y="10" width="117.5" height="60" as="geometry" />
        </mxCell>
        <mxCell id="qNz97zHOUoqoEZT0imf--26" value="Extends" style="endArrow=block;endSize=16;endFill=0;html=1;rounded=0;entryX=0.5;entryY=0.923;entryDx=0;entryDy=0;entryPerimeter=0;" parent="1" source="qNz97zHOUoqoEZT0imf--25" target="qNz97zHOUoqoEZT0imf--6" edge="1">
          <mxGeometry width="160" relative="1" as="geometry">
            <mxPoint x="160" y="270" as="sourcePoint" />
            <mxPoint x="320" y="270" as="targetPoint" />
          </mxGeometry>
        </mxCell>
        <mxCell id="qNz97zHOUoqoEZT0imf--27" value="Include" style="endArrow=open;endSize=12;dashed=1;html=1;rounded=0;entryX=0;entryY=0.5;entryDx=0;entryDy=0;exitX=1;exitY=0.5;exitDx=0;exitDy=0;" parent="1" source="qNz97zHOUoqoEZT0imf--11" target="qNz97zHOUoqoEZT0imf--5" edge="1">
          <mxGeometry width="160" relative="1" as="geometry">
            <mxPoint x="259.99999999999454" y="170" as="sourcePoint" />
            <mxPoint x="194.99999999999454" y="170" as="targetPoint" />
          </mxGeometry>
        </mxCell>
        <mxCell id="qNz97zHOUoqoEZT0imf--28" value="Include" style="endArrow=open;endSize=12;dashed=1;html=1;rounded=0;exitX=1;exitY=1;exitDx=0;exitDy=0;entryX=0.233;entryY=0.114;entryDx=0;entryDy=0;entryPerimeter=0;" parent="1" source="qNz97zHOUoqoEZT0imf--25" target="qNz97zHOUoqoEZT0imf--5" edge="1">
          <mxGeometry width="160" relative="1" as="geometry">
            <mxPoint x="259.99999999999454" y="170" as="sourcePoint" />
            <mxPoint x="194.99999999999454" y="170" as="targetPoint" />
          </mxGeometry>
        </mxCell>
        <mxCell id="qNz97zHOUoqoEZT0imf--29" value="Quản lý thông tin cá nhân" style="ellipse;whiteSpace=wrap;html=1;" parent="1" vertex="1">
          <mxGeometry x="77.5" y="-230" width="120" height="65" as="geometry" />
        </mxCell>
        <mxCell id="qNz97zHOUoqoEZT0imf--30" value="" style="endArrow=none;html=1;rounded=0;entryX=0;entryY=0.5;entryDx=0;entryDy=0;" parent="1" source="vQk_TCHcEZasVmNUSxg1-12" target="qNz97zHOUoqoEZT0imf--29" edge="1">
          <mxGeometry width="50" height="50" relative="1" as="geometry">
            <mxPoint x="-195" y="400" as="sourcePoint" />
            <mxPoint x="-69.99999999999613" y="-67.50000000000023" as="targetPoint" />
            <Array as="points">
              <mxPoint x="-210" y="-200" />
            </Array>
          </mxGeometry>
        </mxCell>
        <mxCell id="qNz97zHOUoqoEZT0imf--31" value="Include" style="endArrow=open;endSize=12;dashed=1;html=1;rounded=0;entryX=0.5;entryY=0;entryDx=0;entryDy=0;exitX=0.379;exitY=1.095;exitDx=0;exitDy=0;exitPerimeter=0;" parent="1" source="qNz97zHOUoqoEZT0imf--29" target="qNz97zHOUoqoEZT0imf--5" edge="1">
          <mxGeometry width="160" relative="1" as="geometry">
            <mxPoint x="259.99999999999454" y="170" as="sourcePoint" />
            <mxPoint x="194.99999999999454" y="170" as="targetPoint" />
          </mxGeometry>
        </mxCell>
        <mxCell id="qNz97zHOUoqoEZT0imf--36" value="Xem danh sách sản phẩm" style="ellipse;whiteSpace=wrap;html=1;" parent="1" vertex="1">
          <mxGeometry x="-37.5" y="585" width="130" height="70" as="geometry" />
        </mxCell>
        <mxCell id="qNz97zHOUoqoEZT0imf--39" value="Phản hồi" style="ellipse;whiteSpace=wrap;html=1;" parent="1" vertex="1">
          <mxGeometry x="460" y="-330" width="130" height="70" as="geometry" />
        </mxCell>
        <mxCell id="qNz97zHOUoqoEZT0imf--41" value="" style="endArrow=none;html=1;rounded=0;entryX=0.25;entryY=0.1;entryDx=0;entryDy=0;entryPerimeter=0;exitX=0;exitY=0.5;exitDx=0;exitDy=0;" parent="1" source="qNz97zHOUoqoEZT0imf--39" target="vQk_TCHcEZasVmNUSxg1-12" edge="1">
          <mxGeometry width="50" height="50" relative="1" as="geometry">
            <mxPoint x="-330" y="250" as="sourcePoint" />
            <mxPoint x="-300" y="520" as="targetPoint" />
            <Array as="points">
              <mxPoint x="-250" y="-290" />
            </Array>
          </mxGeometry>
        </mxCell>
        <mxCell id="qNz97zHOUoqoEZT0imf--42" value="Include" style="endArrow=open;endSize=12;dashed=1;html=1;rounded=0;entryX=1;entryY=0;entryDx=0;entryDy=0;exitX=0.5;exitY=1;exitDx=0;exitDy=0;" parent="1" source="qNz97zHOUoqoEZT0imf--39" target="qNz97zHOUoqoEZT0imf--5" edge="1">
          <mxGeometry width="160" relative="1" as="geometry">
            <mxPoint x="132.98000000000002" y="-148.82500000000005" as="sourcePoint" />
            <mxPoint x="135" y="140" as="targetPoint" />
          </mxGeometry>
        </mxCell>
        <mxCell id="qNz97zHOUoqoEZT0imf--44" value="Đăng nhập" style="ellipse;whiteSpace=wrap;html=1;" parent="1" vertex="1">
          <mxGeometry x="480" y="-140" width="120" height="60" as="geometry" />
        </mxCell>
        <mxCell id="qNz97zHOUoqoEZT0imf--45" value="" style="endArrow=none;html=1;rounded=0;exitX=0.5;exitY=0.5;exitDx=0;exitDy=0;exitPerimeter=0;" parent="1" source="vQk_TCHcEZasVmNUSxg1-20" target="qNz97zHOUoqoEZT0imf--44" edge="1">
          <mxGeometry width="50" height="50" relative="1" as="geometry">
            <mxPoint x="870" y="120" as="sourcePoint" />
            <mxPoint x="610" y="130" as="targetPoint" />
            <Array as="points" />
          </mxGeometry>
        </mxCell>
        <mxCell id="qNz97zHOUoqoEZT0imf--47" value="Include" style="endArrow=open;endSize=12;dashed=1;html=1;rounded=0;" parent="1" source="qNz97zHOUoqoEZT0imf--48" target="qNz97zHOUoqoEZT0imf--44" edge="1">
          <mxGeometry width="160" relative="1" as="geometry">
            <mxPoint x="132.98000000000002" y="-148.82500000000005" as="sourcePoint" />
            <mxPoint x="135" y="140" as="targetPoint" />
          </mxGeometry>
        </mxCell>
        <mxCell id="qNz97zHOUoqoEZT0imf--48" value="Trả lời phản hồi" style="ellipse;whiteSpace=wrap;html=1;" parent="1" vertex="1">
          <mxGeometry x="620" y="-325" width="120" height="65" as="geometry" />
        </mxCell>
        <mxCell id="qNz97zHOUoqoEZT0imf--49" value="" style="endArrow=none;html=1;rounded=0;exitX=0.5;exitY=0.5;exitDx=0;exitDy=0;exitPerimeter=0;" parent="1" source="vQk_TCHcEZasVmNUSxg1-20" target="qNz97zHOUoqoEZT0imf--48" edge="1">
          <mxGeometry width="50" height="50" relative="1" as="geometry">
            <mxPoint x="800" y="-50" as="sourcePoint" />
            <mxPoint x="674.56430573344" y="14.521973662237997" as="targetPoint" />
            <Array as="points">
              <mxPoint x="855" y="-292" />
            </Array>
          </mxGeometry>
        </mxCell>
        <mxCell id="qNz97zHOUoqoEZT0imf--50" value="" style="endArrow=none;html=1;rounded=0;entryX=1;entryY=0.5;entryDx=0;entryDy=0;exitX=0;exitY=0.5;exitDx=0;exitDy=0;" parent="1" source="qNz97zHOUoqoEZT0imf--48" target="qNz97zHOUoqoEZT0imf--39" edge="1">
          <mxGeometry width="50" height="50" relative="1" as="geometry">
            <mxPoint x="850" y="130" as="sourcePoint" />
            <mxPoint x="843.1314068021102" y="-259.9073583417519" as="targetPoint" />
            <Array as="points" />
          </mxGeometry>
        </mxCell>
        <mxCell id="qNz97zHOUoqoEZT0imf--51" value="Đăng xuất" style="ellipse;whiteSpace=wrap;html=1;" parent="1" vertex="1">
          <mxGeometry x="620" y="320" width="120" height="60" as="geometry" />
        </mxCell>
        <mxCell id="qNz97zHOUoqoEZT0imf--52" value="Quản lý User" style="ellipse;whiteSpace=wrap;html=1;" parent="1" vertex="1">
          <mxGeometry x="720" y="-222.5" width="120" height="50" as="geometry" />
        </mxCell>
        <mxCell id="qNz97zHOUoqoEZT0imf--54" value="" style="endArrow=none;html=1;rounded=0;exitX=0.5;exitY=0.5;exitDx=0;exitDy=0;exitPerimeter=0;" parent="1" source="vQk_TCHcEZasVmNUSxg1-20" target="qNz97zHOUoqoEZT0imf--51" edge="1">
          <mxGeometry width="50" height="50" relative="1" as="geometry">
            <mxPoint x="865" y="-30" as="sourcePoint" />
            <mxPoint x="711.0907218255802" y="-252.0740406450641" as="targetPoint" />
            <Array as="points" />
          </mxGeometry>
        </mxCell>
        <mxCell id="qNz97zHOUoqoEZT0imf--55" value="" style="endArrow=none;html=1;rounded=0;exitX=0.25;exitY=0.1;exitDx=0;exitDy=0;exitPerimeter=0;" parent="1" source="vQk_TCHcEZasVmNUSxg1-20" target="qNz97zHOUoqoEZT0imf--52" edge="1">
          <mxGeometry width="50" height="50" relative="1" as="geometry">
            <mxPoint x="850" y="-40" as="sourcePoint" />
            <mxPoint x="709.0674143821034" y="201.55516870866586" as="targetPoint" />
            <Array as="points" />
          </mxGeometry>
        </mxCell>
        <mxCell id="qNz97zHOUoqoEZT0imf--56" value="Include" style="endArrow=open;endSize=12;dashed=1;html=1;rounded=0;entryX=1;entryY=0;entryDx=0;entryDy=0;exitX=0.263;exitY=0.931;exitDx=0;exitDy=0;exitPerimeter=0;" parent="1" source="qNz97zHOUoqoEZT0imf--52" target="qNz97zHOUoqoEZT0imf--44" edge="1">
          <mxGeometry width="160" relative="1" as="geometry">
            <mxPoint x="132.98000000000002" y="-148.82500000000005" as="sourcePoint" />
            <mxPoint x="135" y="140" as="targetPoint" />
          </mxGeometry>
        </mxCell>
        <mxCell id="qNz97zHOUoqoEZT0imf--57" value="Thống kê đơn hàng" style="ellipse;whiteSpace=wrap;html=1;" parent="1" vertex="1">
          <mxGeometry x="620" y="-10" width="120" height="60" as="geometry" />
        </mxCell>
        <mxCell id="qNz97zHOUoqoEZT0imf--60" value="" style="endArrow=none;html=1;rounded=0;exitX=0.5;exitY=0.5;exitDx=0;exitDy=0;exitPerimeter=0;entryX=1;entryY=0;entryDx=0;entryDy=0;" parent="1" source="vQk_TCHcEZasVmNUSxg1-20" target="qNz97zHOUoqoEZT0imf--57" edge="1">
          <mxGeometry width="50" height="50" relative="1" as="geometry">
            <mxPoint x="865" y="-30" as="sourcePoint" />
            <mxPoint x="745.8339571018437" y="-54.01627073406348" as="targetPoint" />
            <Array as="points" />
          </mxGeometry>
        </mxCell>
        <mxCell id="qNz97zHOUoqoEZT0imf--61" value="Include" style="endArrow=open;endSize=12;dashed=1;html=1;rounded=0;entryX=0.5;entryY=1;entryDx=0;entryDy=0;" parent="1" source="qNz97zHOUoqoEZT0imf--57" target="qNz97zHOUoqoEZT0imf--44" edge="1">
          <mxGeometry width="160" relative="1" as="geometry">
            <mxPoint x="259.99999999999454" y="170" as="sourcePoint" />
            <mxPoint x="194.99999999999454" y="170" as="targetPoint" />
          </mxGeometry>
        </mxCell>
        <mxCell id="qNz97zHOUoqoEZT0imf--62" value="Quản lý sản phẩm" style="ellipse;whiteSpace=wrap;html=1;" parent="1" vertex="1">
          <mxGeometry x="465" y="130" width="120" height="60" as="geometry" />
        </mxCell>
        <mxCell id="qNz97zHOUoqoEZT0imf--63" value="" style="endArrow=none;html=1;rounded=0;entryX=1;entryY=0.5;entryDx=0;entryDy=0;exitX=0.5;exitY=0.5;exitDx=0;exitDy=0;exitPerimeter=0;" parent="1" source="vQk_TCHcEZasVmNUSxg1-20" target="qNz97zHOUoqoEZT0imf--62" edge="1">
          <mxGeometry width="50" height="50" relative="1" as="geometry">
            <mxPoint x="810" as="sourcePoint" />
            <mxPoint x="732.4264068711927" y="8.786796564403403" as="targetPoint" />
            <Array as="points" />
          </mxGeometry>
        </mxCell>
        <mxCell id="qNz97zHOUoqoEZT0imf--64" value="Include" style="endArrow=open;endSize=12;dashed=1;html=1;rounded=0;entryX=0.335;entryY=1.014;entryDx=0;entryDy=0;entryPerimeter=0;" parent="1" source="qNz97zHOUoqoEZT0imf--62" target="qNz97zHOUoqoEZT0imf--44" edge="1">
          <mxGeometry width="160" relative="1" as="geometry">
            <mxPoint x="655.5922593381842" y="5.423042384417158" as="sourcePoint" />
            <mxPoint x="550" y="-70" as="targetPoint" />
          </mxGeometry>
        </mxCell>
        <mxCell id="Zq0tHu78Xk7im9dFQuVn-1" value="Xem giỏ hàng" style="ellipse;whiteSpace=wrap;html=1;" parent="1" vertex="1">
          <mxGeometry x="-80" y="-190" width="120" height="80" as="geometry" />
        </mxCell>
        <mxCell id="Zq0tHu78Xk7im9dFQuVn-4" value="" style="endArrow=none;html=1;rounded=0;exitX=0.5;exitY=0;exitDx=0;exitDy=0;exitPerimeter=0;entryX=0;entryY=0.5;entryDx=0;entryDy=0;" parent="1" source="vQk_TCHcEZasVmNUSxg1-12" target="Zq0tHu78Xk7im9dFQuVn-1" edge="1">
          <mxGeometry width="50" height="50" relative="1" as="geometry">
            <mxPoint x="350" y="190" as="sourcePoint" />
            <mxPoint x="-100" y="-130" as="targetPoint" />
          </mxGeometry>
        </mxCell>
        <mxCell id="Zq0tHu78Xk7im9dFQuVn-5" value="Include" style="endArrow=open;endSize=12;dashed=1;html=1;rounded=0;exitX=1;exitY=0.5;exitDx=0;exitDy=0;" parent="1" source="Zq0tHu78Xk7im9dFQuVn-1" target="qNz97zHOUoqoEZT0imf--5" edge="1">
          <mxGeometry x="0.0683" y="-1" width="160" relative="1" as="geometry">
            <mxPoint x="300" y="-70" as="sourcePoint" />
            <mxPoint x="460" y="-70" as="targetPoint" />
            <mxPoint as="offset" />
          </mxGeometry>
        </mxCell>
      </root>
    </mxGraphModel>
  </diagram>
</mxfile>
